Coordinates
version=1
nRows=16
nColumns=18
inDegrees=yes

Units are S.I. units (second, meters, Newtons, ...)
If the header above contains a line with 'inDegrees', this indicates whether rotational values are in degrees (yes) or radians (no).

endheader
time	ground_thorax_rot_x	ground_thorax_rot_y	ground_thorax_rot_z	ground_thorax_tx	ground_thorax_ty	ground_thorax_tz	clav_prot	clav_elev	scapula_abduction	scapula_elevation	scapula_upward_rot	scapula_winging	plane_elv	shoulder_elv	axial_rot	elbow_flexion	pro_sup
      1.98000000	     -2.78043697	     -3.49425855	     -8.47427806	     -0.00513433	      0.00517137	     -0.00776069	    -25.41938983	      1.07804125	      2.01952050	     -5.97091026	     42.67689712	     -2.92488914	     62.11106270	     75.98400458	    -29.29943695	      0.00000000	     34.32000000
      1.99000000	     -2.91035475	     -3.56346054	     -8.30724129	     -0.00517057	      0.00535642	     -0.00773738	    -25.50113940	      1.09238622	      1.99668271	     -5.98355691	     42.83236136	     -2.95800770	     62.04184054	     76.14636297	    -29.28214723	      0.00000000	     34.32000000
      2.00000000	     -2.85974519	     -3.52351811	     -8.45459331	     -0.00514757	      0.00516409	     -0.00785442	    -25.60852682	      1.27289156	      2.02309059	     -5.89857296	     43.15959756	     -3.07520706	     61.64078361	     76.59511985	    -29.16734495	      0.00000000	     34.32000000
      2.01000000	     -2.87600001	     -3.52572183	     -8.47464037	     -0.00503922	      0.00512524	     -0.00791785	    -25.73769775	      1.43869277	      2.01173904	     -5.82452510	     43.48213185	     -3.18764124	     61.36204038	     76.96914327	    -29.06068644	      0.00000000	     34.32000000
      2.02000000	     -2.89161627	     -3.45848602	     -8.46253685	     -0.00497987	      0.00510577	     -0.00798977	    -25.87930461	      1.59200286	      1.98252618	     -5.75961466	     43.80490068	     -3.29612757	     61.00413153	     77.33354643	    -28.95938247	      0.00000000	     34.32000000
      2.03000000	     -2.89010887	     -3.37698637	     -8.44981079	     -0.00501906	      0.00505472	     -0.00796996	    -26.00744926	      1.71491410	      1.97952233	     -5.71435338	     44.12080528	     -3.39231485	     60.62026957	     77.67401798	    -28.86735736	      0.00000000	     34.32000000
      2.04000000	     -2.81674108	     -3.64420715	     -8.46542649	     -0.00502346	      0.00502816	     -0.00769585	    -26.04016069	      1.89719855	      2.35577973	     -5.65008896	     44.72035378	     -3.53974717	     60.36950222	     77.83374501	    -28.53830033	      0.00000000	     34.32000000
      2.05000000	     -3.00366477	     -3.72194272	     -8.25176928	     -0.00537136	      0.00519667	     -0.00780033	    -26.13984357	      1.90454941	      2.34682566	     -5.67259824	     44.92822363	     -3.57901816	     60.32667654	     78.04700678	    -28.51989664	      0.00000000	     34.32000000
      2.06000000	     -3.03915394	     -4.11162879	     -8.51057985	     -0.00512605	      0.00504179	     -0.00758623	    -26.27535512	      1.96593235	      2.45562622	     -5.68306806	     45.37734509	     -3.67186713	     60.46017555	     78.61058569	    -28.43040078	      0.00000000	     34.32000000
      2.07000000	     -3.07012214	     -4.23393789	     -8.54366492	     -0.00510045	      0.00500189	     -0.00765728	    -26.34214404	      2.08886237	      2.53488229	     -5.62815912	     45.66016339	     -3.75613897	     60.33098571	     79.00080318	    -28.30114790	      0.00000000	     34.32000000
      2.08000000	     -3.10396046	     -4.21401403	     -8.54540796	     -0.00503897	      0.00496938	     -0.00779468	    -26.41303660	      2.20775486	      2.55845460	     -5.57000278	     45.88130400	     -3.83080856	     60.04888445	     79.36179130	    -28.16752982	      0.00000000	     34.32000000
      2.09000000	     -3.10289797	     -4.42201687	     -8.53056097	     -0.00498522	      0.00494353	     -0.00773260	    -26.31250764	      2.44343238	      2.93421547	     -5.42784686	     46.20494913	     -3.94018450	     59.76844086	     79.69487772	    -26.74603809	      0.00000000	     34.32000000
      2.10000000	     -3.16587871	     -4.42603315	     -8.50009458	     -0.00508684	      0.00496209	     -0.00775684	    -26.43650415	      2.55025144	      2.93483803	     -5.38880580	     46.50814517	     -4.02475086	     59.50187509	     80.06517128	    -26.70572679	      0.00000000	     34.32000000
      2.11000000	     -3.29278758	     -4.52546298	     -8.32119182	     -0.00523649	      0.00515332	     -0.00766726	    -26.53181624	      2.56124855	      2.89460691	     -5.40197865	     46.66766837	     -4.05770317	     59.42034607	     80.23168347	    -26.69017708	      0.00000000	     34.32000000
      2.12000000	     -3.19669969	     -4.66407029	     -8.53913662	     -0.00508117	      0.00491871	     -0.00755632	    -26.65862278	      2.72839797	      2.93062200	     -5.32601333	     47.03946562	     -4.17018440	     59.24399686	     80.66932544	    -26.65323373	      0.00000000	     34.32000000
      2.13000000	     -3.32921629	     -4.69804964	     -8.40220655	     -0.00503023	      0.00511108	     -0.00769696	    -26.72433068	      2.74279835	      2.92571735	     -5.33286911	     47.17960247	     -4.19887774	     59.20514610	     80.81586793	    -26.63977842	      0.00000000	     34.32000000
